<?xml version="1.0" encoding="utf-8"?>
<!-- Generated by IcoMoon.io -->
<!DOCTYPE svg PUBLIC "-//W3C//DTD SVG 1.1//EN" "http://www.w3.org/Graphics/SVG/1.1/DTD/svg11.dtd">
<svg version="1.1" xmlns="http://www.w3.org/2000/svg" xmlns:xlink="http://www.w3.org/1999/xlink" width="32" height="32" viewBox="0 0 32 32">
<path d="M27 0h-22c-2.209 0-4 1.791-4 4v24c0 2.209 1.791 4 4 4h22c2.209 0 4-1.791 4-4v-24c0-2.209-1.791-4-4-4zM29 28c0 1.102-0.898 2-2 2h-22c-1.103 0-2-0.898-2-2v-24c0-1.103 0.897-2 2-2h22c1.102 0 2 0.897 2 2v24zM26 4h-20c-0.553 0-1 0.447-1 1v18c0 0.553 0.447 1 1 1h20c0.553 0 1-0.447 1-1v-18c0-0.553-0.447-1-1-1zM26 5v13.869l-3.25-3.53c-0.191-0.216-0.463-0.339-0.75-0.339s-0.561 0.123-0.75 0.339l-2.604 2.95-7.896-8.95c-0.19-0.216-0.463-0.339-0.75-0.339s-0.56 0.123-0.75 0.339l-3.25 3.748v-8.087h20zM6 14.6l4-4.6 8.646 9.801 2.762 3.199h-15.408v-8.4zM22.74 23l-3.428-3.955 2.688-3.045 4 4.379v2.621h-3.26zM20 13c1.656 0 3-1.343 3-3s-1.344-3-3-3c-1.658 0-3 1.343-3 3s1.342 3 3 3zM20 8c1.102 0 2 0.897 2 2s-0.898 2-2 2c-1.104 0-2-0.897-2-2s0.896-2 2-2z"></path>
</svg>
