<?xml version="1.0" encoding="utf-8"?>
<!-- Generated by IcoMoon.io -->
<!DOCTYPE svg PUBLIC "-//W3C//DTD SVG 1.1//EN" "http://www.w3.org/Graphics/SVG/1.1/DTD/svg11.dtd">
<svg version="1.1" xmlns="http://www.w3.org/2000/svg" xmlns:xlink="http://www.w3.org/1999/xlink" width="32" height="32" viewBox="0 0 32 32">
<path d="M31.11 28.336c-0.201-0.133-3.848-2.525-9.273-3.699 1.99-2.521 3.268-5.912 3.811-8.169 0.754-3.128 0.461-9.248-2.543-13.062-1.756-2.229-4.213-3.406-7.105-3.406s-5.349 1.178-7.104 3.406c-3.004 3.813-3.296 9.933-2.543 13.061 0.543 2.257 1.82 5.648 3.811 8.169-5.425 1.174-9.072 3.566-9.272 3.699-0.733 0.488-1.061 1.4-0.805 2.242 0.254 0.845 1.033 1.423 1.913 1.423h28c0.881 0 1.658-0.578 1.914-1.422 0.257-0.842-0.071-1.754-0.804-2.242zM20.267 23.398l-0.326 0.414c-2.385 2.74-5.495 2.74-7.879 0l-0.327-0.414c-2.785-3.529-4.167-8.197-3.572-12.65 0.545-4.279 2.997-8.748 7.837-8.748s7.293 4.47 7.838 8.749c0.593 4.455-0.784 9.118-3.571 12.649zM2 30c0.138-0.092 3.526-2.314 8.586-3.408l2.484-0.537c0.887 0.582 1.86 0.945 2.93 0.945 1.071 0 2.043-0.363 2.93-0.945l2.484 0.537c5.020 1.086 8.396 3.283 8.586 3.408h-28z"></path>
</svg>
