<?xml version="1.0" encoding="utf-8"?><svg fill="#ffffff" width="undefined" height="undefined" xmlns="http://www.w3.org/2000/svg" viewBox="0 0 32 32"><path d="M31.415 10.586l-10-10a2.002 2.002 0 0 0-3.326.822c-.453 1.469-1.236 2.746-2.395 3.904-1.548 1.547-3.564 2.719-5.697 3.958-2.264 1.312-4.603 2.672-6.52 4.588C1.848 15.489.739 17.303.089 19.409a2.002 2.002 0 0 0 .496 2.006l10 10a2.002 2.002 0 0 0 3.326-.824c.454-1.469 1.237-2.746 2.397-3.904 1.547-1.547 3.562-2.717 5.697-3.955 2.262-1.314 4.602-2.674 6.518-4.59 1.629-1.629 2.738-3.445 3.389-5.551a2.004 2.004 0 0 0-.497-2.005zM12 30L2 20c2.842-9.201 15.16-8.799 18-18l10.002 10C27.159 21.199 14.841 20.799 12 30zm7.562-15.1c-.326-.273-.654-.459-.984-.551a2.864 2.864 0 0 0-.988-.105 3.54 3.54 0 0 0-1 .229 13.73 13.73 0 0 0-1.014.438 56.818 56.818 0 0 0-1.611-1.793c.242-.219.477-.33.703-.338.227-.01.445.014.652.066.211.053.404.098.582.133a.538.538 0 0 0 .473-.119.664.664 0 0 0 .236-.482c.01-.197-.064-.389-.229-.576a1.293 1.293 0 0 0-.77-.443 2.377 2.377 0 0 0-.93.021c-.316.072-.617.191-.902.359s-.514.34-.684.508l-.195-.184a.376.376 0 0 0-.27-.1.35.35 0 0 0-.273.133.36.36 0 0 0-.092.285.36.36 0 0 0 .127.252c.065.055.13.109.195.166-.256.309-.467.65-.633 1.01a3.376 3.376 0 0 0-.305 1.066c-.039.35-.002.67.105.967.107.299.305.553.594.793.471.391 1.025.557 1.668.52.641-.039 1.332-.23 2.075-.629.59.682 1.182 1.359 1.773 1.988-.25.211-.469.332-.662.371a1.035 1.035 0 0 1-.521-.01 1.657 1.657 0 0 1-.434-.209 3.048 3.048 0 0 0-.395-.234c-.129-.064-.262-.1-.398-.102s-.281.064-.441.201c-.164.143-.246.309-.246.496s.086.375.254.566c.17.191.391.352.658.479s.569.207.901.229a2.5 2.5 0 0 0 1.051-.164c.371-.135.738-.379 1.1-.742.174.17.35.332.525.488a.36.36 0 0 0 .273.088.363.363 0 0 0 .27-.141.386.386 0 0 0 .094-.293.341.341 0 0 0-.125-.244 13.1 13.1 0 0 1-.527-.445c.299-.367.539-.754.717-1.137.178-.385.283-.756.318-1.1a1.965 1.965 0 0 0-.119-.941c-.112-.287-.311-.533-.596-.77zm-5.591.678a.971.971 0 0 1-.746-.291.733.733 0 0 1-.195-.322 1.004 1.004 0 0 1-.039-.418c.014-.15.059-.307.137-.465.074-.158.184-.316.324-.469a35.667 35.667 0 0 1 1.52 1.629c-.384.211-.718.324-1.001.336zm4.717 2.002c-.09.166-.193.314-.314.443a40.863 40.863 0 0 1-1.68-1.826c.143-.064.293-.131.455-.199s.324-.113.486-.141c.166-.025.33-.018.494.021.162.041.316.129.459.268.141.141.23.287.266.445.039.16.041.322.014.488a1.612 1.612 0 0 1-.18.501zm-3.971 4.6a.499.499 0 0 1 .668.742c-.016.016-.033.027-.051.041l.002.002a15.86 15.86 0 0 0-1.714 1.475 13.571 13.571 0 0 0-1.361 1.58l-.639.875a.47.47 0 0 1-.074.1.504.504 0 0 1-.71 0 .503.503 0 0 1-.066-.627l-.002-.002.684-.934c.427-.584.918-1.156 1.461-1.699a17.95 17.95 0 0 1 1.8-1.553h.002zm3.661-14.465c.506-.506.963-1.037 1.36-1.581l.664-.91a.504.504 0 0 1 .826.561l.002.002-.684.938a14.693 14.693 0 0 1-1.461 1.697 18.201 18.201 0 0 1-1.799 1.553l-.004-.002a.504.504 0 0 1-.699-.014.506.506 0 0 1 .117-.801c.588-.449 1.155-.92 1.678-1.443z"/></svg>