<?xml version="1.0" encoding="utf-8"?><svg fill="#ffffff" width="undefined" height="undefined" xmlns="http://www.w3.org/2000/svg" viewBox="0 0 32 32"><path d="M16 0C9.924 0 5 4.924 5 11c0 4.031 3.688 8.303 5.031 12.055C12.034 28.65 11.812 32 16 32c4.25 0 3.965-3.334 5.969-8.922C23.316 19.318 27 15 27 11c0-6.076-4.926-11-11-11zm2.592 27.176l-4.958.619a43.56 43.56 0 0 1-.598-1.893l-.009-.031 6.188-.773c-.088.295-.182.605-.264.883-.131.449-.248.839-.359 1.195zm-5.856-2.268A60 60 0 0 0 12.121 23h7.766c-.123.359-.246.719-.352 1.059l-6.799.849zM16 30c-1.013 0-1.479-.117-1.997-1.25l4.238-.531C17.627 29.873 17.18 30 16 30zm4.672-9h-9.333c-.498-1.08-1.096-2.16-1.686-3.217C8.348 15.448 7 13.033 7 11c0-4.963 4.037-9 9-9s9 4.037 9 9c0 2.018-1.35 4.446-2.656 6.795-.584 1.053-1.178 2.131-1.672 3.205zM16 5a.5.5 0 0 1 0 1c-2.757 0-5 2.243-5 5a.5.5 0 0 1-1 0c0-3.309 2.691-6 6-6z"/></svg>