<?xml version="1.0" encoding="utf-8"?><svg fill="#ffffff" width="undefined" height="undefined" xmlns="http://www.w3.org/2000/svg" viewBox="0 0 32 32"><path d="M16 10.001c-4.419 0-8 3.581-8 8s3.581 8 8 8a8 8 0 0 0 0-16zm4.555 11.905a5.998 5.998 0 0 1-8.459.65 5.997 5.997 0 0 1-.65-8.459 6 6 0 0 1 9.109 7.809zM16 14.001a.5.5 0 0 1 0 1A3 3 0 0 0 13 18v.002a.5.5 0 0 1-1 0V18a4 4 0 0 1 4-3.999zm13.492-4.959l-4.334-.723-1.373-3.434A2.988 2.988 0 0 0 21 3H11a2.99 2.99 0 0 0-2.786 1.886L6.842 8.319l-4.333.723A2.989 2.989 0 0 0 0 12v15c0 1.654 1.346 3 3 3h26c1.654 0 3-1.346 3-3V12a2.989 2.989 0 0 0-2.508-2.958zM30 27a1 1 0 0 1-1 1H3a1 1 0 0 1-1-1V12a1 1 0 0 1 .836-.986l5.444-.907 1.791-4.478C10.224 5.25 10.591 5 11 5h10c.408 0 .775.249.928.629l1.791 4.478 5.445.907A1 1 0 0 1 30 12v15z"/></svg>