<?xml version="1.0" encoding="utf-8"?><svg fill="#ffffff" width="undefined" height="undefined" xmlns="http://www.w3.org/2000/svg" viewBox="0 0 32 32"><path d="M29.363 4.637a8.997 8.997 0 0 1 0 12.727L18.396 28.332a.997.997 0 0 1-1.414 0 .995.995 0 0 1 0-1.414l10.826-10.827a6.997 6.997 0 0 0-.002-9.899 6.998 6.998 0 0 0-9.898 0L3.461 20.469a4.998 4.998 0 0 0 0 7.07 4.998 4.998 0 0 0 7.07 0l14.59-14.417c1.17-1.17 1.17-3.073 0-4.243s-3.072-1.169-4.242 0L9.91 19.848a1 1 0 1 1-1.414-1.415L19.464 7.465a5 5 0 0 1 7.07 7.071l-14.59 14.418c-2.728 2.729-7.169 2.729-9.898 0s-2.729-7.171 0-9.9l14.59-14.417a8.997 8.997 0 0 1 12.727 0z"/></svg>