<?xml version="1.0" encoding="utf-8"?><svg fill="#ffffff" width="undefined" height="undefined" xmlns="http://www.w3.org/2000/svg" viewBox="0 0 32 32"><path d="M15 10a1 1 0 1 1 2 0 1 1 0 0 1-2 0zm0 12a1 1 0 1 1 2 0 1 1 0 0 1-2 0zm-6-6a1 1 0 1 1 2 0 1 1 0 0 1-2 0zm12 0a1 1 0 1 1 2 0 1 1 0 0 1-2 0zm-10.243 4.242a1 1 0 1 1 2 0 1 1 0 0 1-2 0zm0-8.485a1 1 0 1 1 2 0 1 1 0 0 1-2 0zm8.485 8.485a1 1 0 1 1 2 0 1 1 0 0 1-2 0zM26 14c-.07 0-.129.033-.197.04-.348-1.745-1.17-3.306-2.297-4.594L22.07 1.634A1.998 1.998 0 0 0 20.104 0h-8c-.964 0-1.79.688-1.967 1.635l-1.4 7.549C7.057 10.971 6 13.352 6 16c0 2.583 1.014 4.905 2.621 6.678l1.412 7.688A2.001 2.001 0 0 0 12 32h8c.963 0 1.789-.688 1.967-1.635l1.424-7.682c1.189-1.311 2.053-2.92 2.412-4.725.068.009.127.042.197.042a2 2 0 0 0 0-4zM12.104 2h8l1 5.387C19.627 6.528 17.936 6 16.104 6c-1.831 0-3.523.528-5 1.387l1-5.387zM20 30h-8l-1-5.387c1.476.858 3.168 1.387 5 1.387 1.831 0 3.524-.529 5-1.387L20 30zm-4-6c-4.411 0-8-3.59-8-8s3.589-8 8-8 8 3.589 8 8c0 4.41-3.59 8-8 8zm4.941-12.974a.34.34 0 0 1 .028.449l-2.426 3.021-1.848 2.225a1.028 1.028 0 0 1-.699.277c-.269-.002-.52-.106-.707-.292S15 16.271 15 16.008c0-.272.105-.526.296-.718l5.192-4.285a.34.34 0 0 1 .453.021z"/></svg>