<?xml version="1.0" encoding="utf-8"?><svg fill="#ffffff" width="undefined" height="undefined" xmlns="http://www.w3.org/2000/svg" viewBox="0 0 32 32"><path d="M25.914 13.143C25.477 8.58 21.678 5 17 5c-3.619 0-6.717 2.148-8.146 5.23A4.46 4.46 0 0 0 7.501 10a4.501 4.501 0 0 0-4.5 4.5c0 .494.099.961.246 1.404C1.314 17.031.001 19.099.001 21.498a6.5 6.5 0 0 0 6.5 6.5V28l17.999-.002c4.143 0 7.5-3.357 7.5-7.5 0-3.656-2.621-6.693-6.086-7.355zM24.5 25.998V26H6.501a4.508 4.508 0 0 1-4.5-4.502c0-1.6.843-3.045 2.254-3.867 1.371-.787 1.465-.943.89-2.357a2.455 2.455 0 0 1-.144-.773c0-1.379 1.121-2.5 2.5-2.5 0 0 .656-.047 1.353.23 1.147.457 1.272.02 1.814-1.159C11.815 8.599 14.3 7 17 7c3.6 0 6.576 2.723 6.924 6.334.123 1.432.123 1.432 1.615 1.773A5.496 5.496 0 0 1 30 20.498c0 3.033-2.467 5.5-5.5 5.5z"/></svg>