<?xml version="1.0" encoding="utf-8"?><svg fill="#ffffff" width="undefined" height="undefined" xmlns="http://www.w3.org/2000/svg" viewBox="0 0 32 32"><path d="M28.111 5.022l-1.215-3.655A1.996 1.996 0 0 0 25 0H7a2 2 0 0 0-1.898 1.367L3.877 5.024C2.833 5.091 2 5.939 2 7v3a2 2 0 0 0 2 2h1.034c0 .075-.03.146-.021.221l2 18A2 2 0 0 0 9 32h14c1.02 0 1.875-.768 1.986-1.779l2-18c.01-.075-.021-.146-.021-.221H28a2 2 0 0 0 2-2V7c0-1.065-.84-1.917-1.889-1.978zM7 2h18l1 3H6l1-3zm2 28l-.333-3h14.666L23 30H9zm14.443-4H8.555L7.444 16h17.111l-1.112 10zm1.223-11H7.333L7 12h18l-.334 3zM28 10H4V7h24v3z"/></svg>