<?xml version="1.0" encoding="utf-8"?><svg fill="#ffffff" width="undefined" height="undefined" xmlns="http://www.w3.org/2000/svg" viewBox="0 0 32 32"><path d="M31.414 9.677l-5.08-5.081a2.002 2.002 0 0 0-1.414-.586H7.081a2 2 0 0 0-1.414.586L.587 9.677a1.998 1.998 0 0 0-.081 2.743l13.999 14.908a1.999 1.999 0 0 0 2.989 0l14-14.908a1.999 1.999 0 0 0-.08-2.743zM18.219 11.01H13.78L16 9.161l2.219 1.849zm-1.437-2.5l2.732-2.278 2.018 2.018L19 10.359 16.782 8.51zM13 10.359L10.468 8.25l2.018-2.018 2.733 2.278L13 10.359zm5.49 1.651L16 24.463 13.51 12.01h4.98zm1.02 0h4.906l-7.359 12.269L19.51 12.01zm.269-1l2.463-2.051 2.051 2.051h-4.514zm.928-5h3.512l-1.916 1.597-1.596-1.597zM16 7.86l-2.22-1.85h4.438L16 7.86zm-6.304-.253L7.78 6.01h3.513L9.696 7.607zm.062 1.352l2.462 2.051H7.707l2.051-2.051zm2.732 3.051l2.453 12.269-7.36-12.269h4.907zm.214 10.478L2.864 12.01h3.554l6.286 10.478zM25.582 12.01h3.555l-9.842 10.48 6.287-10.48zm.125-1l-2.693-2.693 2.297-1.915 4.607 4.608h-4.211zM6.686 6.4l2.301 1.917-2.694 2.693H2.006l4.68-4.61z"/></svg>