<?xml version="1.0" encoding="utf-8"?><svg fill="#ffffff" width="undefined" height="undefined" xmlns="http://www.w3.org/2000/svg" viewBox="0 0 32 32"><path d="M27 4.996L5 5c-.553 0-1 .443-1 .996v14a1 1 0 0 0 1 1h22a1 1 0 0 0 1-1v-14a1 1 0 0 0-1-1zM27 20H5V5.996h22V20zm2-19H3a3 3 0 0 0-3 3v20a2.997 2.997 0 0 0 2.99 2.998H13v1.217l-6.242.811A.999.999 0 0 0 7 30.996h18a1 1 0 0 0 .242-1.971L19 28.215v-1.217h10.01A2.997 2.997 0 0 0 32 24V4a3 3 0 0 0-3-3zm1 23c0 .551-.449 1-1 1H3c-.552 0-1-.449-1-1V4a1 1 0 0 1 1-1h26c.551 0 1 .448 1 1v20z"/></svg>