<?xml version="1.0" encoding="utf-8"?><svg fill="#ffffff" width="undefined" height="undefined" xmlns="http://www.w3.org/2000/svg" viewBox="0 0 32 32"><path d="M31.965 15.776c-.01-.042-.004-.087-.02-.128-.006-.017-.021-.026-.027-.042-.01-.024-.008-.051-.021-.074-2.9-5.551-9.213-9.528-15.873-9.528-6.661 0-12.973 3.971-15.875 9.521-.013.023-.011.05-.021.074-.007.016-.021.025-.027.042-.016.041-.01.086-.02.128-.018.075-.035.147-.035.224s.018.148.035.224c.01.042.004.087.02.128.006.017.021.026.027.042.01.024.008.051.021.074 2.901 5.551 9.214 9.528 15.875 9.528 6.66 0 12.973-3.971 15.873-9.521.014-.023.012-.05.021-.074.006-.016.021-.025.027-.042.016-.041.01-.086.02-.128.017-.076.035-.148.035-.224s-.018-.149-.035-.224zm-15.942 8.212c-5.615 0-11.112-3.191-13.851-7.995 2.754-4.81 8.243-7.99 13.851-7.99 5.613 0 11.111 3.192 13.85 7.995-2.754 4.811-8.242 7.99-13.85 7.99zm0-11.989a.499.499 0 1 1 0 .999v.001a3.002 3.002 0 0 0-2.999 2.997.5.5 0 1 1-.999 0A3.998 3.998 0 0 1 16.017 12l.006-.001zM16 9a7 7 0 1 0 0 14 7 7 0 0 0 0-14zm0 13c-3.309 0-6-2.691-6-6s2.691-6 6-6 6 2.691 6 6-2.691 6-6 6z"/></svg>