<?xml version="1.0" encoding="utf-8"?><svg fill="#ffffff" width="undefined" height="undefined" xmlns="http://www.w3.org/2000/svg" viewBox="0 0 32 32"><path d="M22 9c-.062 2.675-2.07 4.934-2.07 4.934C19.93 8.958 16 5 16 5s-.053 2.962-2.043 5.948C11.967 3.981 5.995 0 5.995 0 8.981 10.948 5 14.93 5 22.892 5 27.563 8.954 32 15 32c8.957 0 10.689-3.288 11.615-6.993C27.891 19.906 25.98 13.976 22 9zm2.676 15.521C24.033 27.09 23.307 30 15 30c-5.008 0-8-3.614-8-7.108 0-2.676.488-4.873 1.004-7.199.656-2.949 1.328-5.968 1.037-9.961 3.084 4.269 4.182 9.925 4.182 9.925s2.871-4.031 3.643-5.903C17.457 10.957 18 15 18 19c0 0 2.656-2.188 4.648-5.478 2.098 3.762 2.854 7.695 2.028 10.999zm-2.244-7.726l.186 1.035c.416 2.318.183 5.058-.592 6.982a.499.499 0 0 1-.651.277.499.499 0 0 1-.277-.65c.584-1.449.83-3.489.674-5.353-1.004 1.122-2.269 2.291-4.972 3.575l-.506.239-.182-.528c-.362-1.05-.727-2.111-.885-3.59a43.726 43.726 0 0 1-1.865 2.743l-.508.692-.352-.784c-.861-1.925-1.517-3.428-2.037-4.75-.481 1.545-.84 3.332-.84 6.941a.5.5 0 0 1-1 0c0-4.709.625-6.523 1.285-8.444l.52-1.51.479 1.35c.515 1.451 1.193 3.05 2.152 5.212.632-.893 1.056-1.565 1.568-2.376l1.518-2.378v1.709c0 1.924.346 3.181.727 4.323 2.659-1.338 3.655-2.502 4.708-3.73l.85-.985z"/></svg>