<?xml version="1.0" encoding="utf-8"?><svg fill="#ffffff" width="undefined" height="undefined" xmlns="http://www.w3.org/2000/svg" viewBox="0 0 32 32"><path d="M29.5 21h-2.691c-.045-.239-.1-.473-.16-.706l4.799-2.399a1.001 1.001 0 0 0-.895-1.789l-4.578 2.288C24.229 14.626 20.42 12 16 12c-5.382 0-9.865 3.888-10.809 9H2.5A2.503 2.503 0 0 0 0 23.5c0 .49.18.963.505 1.329L4 28.761v.739C4 30.879 5.122 32 6.5 32h19c1.379 0 2.5-1.121 2.5-2.5v-.739l3.494-3.932c.326-.366.506-.839.506-1.329 0-1.379-1.121-2.5-2.5-2.5zm-3.701 0h-.562l.498-.25c.019.084.046.165.064.25zM16 13c4.029 0 7.5 2.4 9.082 5.841l-.891.445C22.775 16.171 19.645 14 16 14c-4.282 0-7.859 2.993-8.77 7H6.202c.929-4.559 4.969-8 9.798-8zm4.576 8c-.773-1.763-2.531-3-4.576-3s-3.802 1.237-4.576 3H10.35c.826-2.326 3.043-4 5.65-4a6.006 6.006 0 0 1 5.508 3.627l-.932.373zM16 20c-.883 0-1.67.391-2.22 1h-1.224c.694-1.189 1.97-2 3.444-2 1.473 0 2.75.811 3.443 2h-1.225A2.977 2.977 0 0 0 16 20zm0-4c-3.165 0-5.842 2.112-6.705 5H8.263c.892-3.444 4.017-6 7.737-6 3.246 0 6.043 1.948 7.295 4.734l-.893.446C21.314 17.723 18.855 16 16 16zm10 12v1.5a.5.5 0 0 1-.5.5h-19a.5.5 0 0 1-.5-.5V28l-4-4.5a.5.5 0 0 1 .5-.5h27a.5.5 0 0 1 .5.5L26 28zM7.977 11.712l-.018-.042c-.519-1.253-.003-2.482.463-3.591.441-1.052.832-1.984.428-2.893l-.005-.012-.003-.009-.001-.006a.49.49 0 0 1 .914-.346c.558 1.271.051 2.521-.422 3.647-.438 1.042-.794 2.01-.419 2.892a.034.034 0 0 1 0 .02.503.503 0 0 1-.484.628.498.498 0 0 1-.443-.27h-.002l-.008-.018zm12.177-.146l-.016-.04c-.519-1.253-.004-2.483.461-3.592.442-1.052.832-1.984.428-2.893 0-.004-.002-.008-.004-.012l-.004-.009v-.006a.498.498 0 0 1-.033-.169.49.49 0 0 1 .947-.177c.558 1.271.051 2.521-.422 3.647-.438 1.042-.793 2.01-.42 2.892a.024.024 0 0 1 .002.02c.01.04.018.082.018.125a.501.501 0 1 1-.947.232h-.002c-.002-.006-.004-.012-.008-.018zm-5.135-4.354L15 7.171c-.52-1.253-.004-2.483.462-3.592.441-1.052.832-1.984.428-2.893l-.004-.012-.003-.009-.001-.006a.49.49 0 0 1 .915-.345c.558 1.271.051 2.521-.422 3.647-.438 1.042-.794 2.01-.419 2.892a.034.034 0 0 1 0 .02.503.503 0 0 1-.484.628.501.501 0 0 1-.443-.271h-.002l-.008-.018z"/></svg>