<?xml version="1.0" encoding="utf-8"?><svg fill="#ffffff" width="undefined" height="undefined" xmlns="http://www.w3.org/2000/svg" viewBox="0 0 32 32"><path d="M22.004 0c-5.523 0-10 4.478-10 10a9.87 9.87 0 0 0 .713 3.629L.568 25.777C.217 26.129 0 26.463 0 27v3c0 1.07.929 2 2 2h3c.536 0 .875-.215 1.226-.564L7.661 30h2.343a2 2 0 0 0 2-2v-2h2a2 2 0 0 0 2-2v-2.344l2.369-2.371c1.129.445 2.344.715 3.631.715 5.521 0 10-4.478 10-10s-4.479-10-10-10zm0 18c-1.48 0-2.852-.43-4.041-1.132l-.344.343-3.03 3.031a1.999 1.999 0 0 0-.586 1.414V24h-2a2 2 0 0 0-2 2v2H7.661a2 2 0 0 0-1.414.586l-1.418 1.418L2.003 30 2 27.15l11.665-11.644.001.002 1.469-1.469c-.702-1.189-1.132-2.56-1.132-4.04A8.001 8.001 0 1 1 22.004 18zm5.816-9.761a17.71 17.71 0 0 0-4.055-4.054.961.961 0 0 0-.882-.127c-1.389.489-2.34 1.439-2.826 2.828a.952.952 0 0 0 .127.882 17.736 17.736 0 0 0 4.053 4.053.966.966 0 0 0 .881.128c1.391-.486 2.342-1.438 2.83-2.828a.952.952 0 0 0-.128-.882zm-3 2.771A17.122 17.122 0 0 1 21 7.217c.387-1.103 1.111-1.827 2.182-2.221a16.75 16.75 0 0 1 3.816 3.811c-.391 1.095-1.113 1.815-2.178 2.203z"/></svg>