<?xml version="1.0" encoding="utf-8"?><svg fill="#ffffff" width="undefined" height="undefined" xmlns="http://www.w3.org/2000/svg" viewBox="0 0 32 32"><path d="M20.682 3.732C20.209 3.26 19.582 3 18.914 3s-1.295.26-1.77.733l-1.41 1.412A2.482 2.482 0 0 0 15 6.914c0 .471.129.922.371 1.313L1.794 13.666a2.998 2.998 0 0 0-.908 4.876l12.72 12.58a2.982 2.982 0 0 0 2.045.877l.078.001a2.985 2.985 0 0 0 2.787-1.89l5.342-13.376c.402.265.875.407 1.367.407a2.48 2.48 0 0 0 1.768-.733L28.4 15c.477-.474.738-1.103.738-1.773s-.262-1.3-.732-1.768l-7.724-7.727zm-4.023 25.635a1 1 0 0 1-1.638.341L2.293 17.12a.998.998 0 0 1 .307-1.623l6.217-2.49c4.189 1.393 8.379.051 12.57 4.522l-4.728 11.838zM26.992 13.58l-1.414 1.413a.499.499 0 0 1-.707 0l-1.768-1.767-1.432 3.589.119-.303c-3.01-3.005-6.069-3.384-8.829-3.723-.887-.109-1.747-.223-2.592-.405l8.491-3.401-1.715-1.715a.5.5 0 0 1 0-.707l1.414-1.415a.5.5 0 0 1 .707 0l7.725 7.727a.496.496 0 0 1 .001.707zM16.5 21c1.378 0 2.5-1.121 2.5-2.5S17.879 16 16.5 16 14 17.121 14 18.5s1.122 2.5 2.5 2.5zm0-4a1.5 1.5 0 1 1-.001 3.001A1.5 1.5 0 0 1 16.5 17zm13-17C28.121 0 27 1.121 27 2.5S28.121 5 29.5 5 32 3.879 32 2.5 30.879 0 29.5 0zm0 4a1.5 1.5 0 1 1 .001-3.001A1.5 1.5 0 0 1 29.5 4zM8 17c0 1.103.897 2 2 2s2-.897 2-2-.897-2-2-2-2 .897-2 2zm2-1a1 1 0 1 1 0 2 1 1 0 0 1 0-2zm2 7a1 1 0 1 1 2 0 1 1 0 0 1-2 0zM28 8a1 1 0 1 1 2 0 1 1 0 0 1-2 0z"/></svg>