<?xml version="1.0" encoding="utf-8"?><svg fill="#ffffff" width="undefined" height="undefined" xmlns="http://www.w3.org/2000/svg" viewBox="0 0 32 32"><path d="M29.164 10.472c-1.25-.328-4.189-.324-8.488-.438.203-.938.25-1.784.25-3.286C20.926 3.16 18.312 0 16 0c-1.633 0-2.979 1.335-3 2.977-.022 2.014-.645 5.492-4 7.256-.246.13-.95.477-1.053.522L8 10.8c-.525-.453-1.253-.8-2-.8H3c-1.654 0-3 1.346-3 3v16c0 1.654 1.346 3 3 3h3c1.19 0 2.186-.719 2.668-1.727.012.004.033.01.047.012l.239.062.046.012c.576.143 1.685.408 4.055.953.508.116 3.192.688 5.972.688h5.467c1.666 0 2.867-.641 3.582-1.928.01-.02.24-.469.428-1.076a3.33 3.33 0 0 0 .023-1.76c1.074-.738 1.42-1.854 1.645-2.58.377-1.191.264-2.086.002-2.727.604-.57 1.119-1.439 1.336-2.766a3.757 3.757 0 0 0-.389-2.372c.566-.636.824-1.436.854-2.176l.012-.209c.007-.131.013-.212.013-.5 0-1.263-.875-2.874-2.836-3.434zM7 29a1 1 0 0 1-1 1H3a1 1 0 0 1-1-1V13a1 1 0 0 1 1-1h3a1 1 0 0 1 1 1v16zm22.977-14.465C29.957 15.029 29.75 16 28 16h-2a.5.5 0 1 0 0 1h1.938c1.5 0 1.697 1.244 1.6 1.844-.124.746-.474 2.156-2.163 2.156H25a.499.499 0 1 0 0 1h1.969c1.688 0 1.539 1.287 1.297 2.055-.319 1.009-.514 1.945-2.641 1.945h-1.631a.499.499 0 1 0 0 1h1.568c1.094 0 1.145 1.035 1.031 1.406-.125.406-.273.707-.279.721-.302.545-.789.873-1.82.873h-5.467c-2.746 0-5.47-.623-5.54-.639-4.154-.957-4.373-1.031-4.634-1.105 0 0-.846-.143-.846-.881L8 13.563c0-.469.299-.893.794-1.042.062-.024.146-.05.206-.075 4.568-1.892 5.959-6.04 6-9.446.006-.479.375-1 1-1 1.057 0 2.926 2.122 2.926 4.748 0 2.371-.096 2.781-.926 5.252 10 0 9.93.144 10.812.375 1.094.313 1.188 1.219 1.188 1.531 0 .343-.01.293-.023.629zM4.5 26a1.5 1.5 0 1 0 .001 3.001A1.5 1.5 0 0 0 4.5 26zm0 2c-.275 0-.5-.225-.5-.5s.225-.5.5-.5.5.225.5.5-.225.5-.5.5z"/></svg>