<?xml version="1.0" encoding="utf-8"?><svg fill="#ffffff" width="undefined" height="undefined" xmlns="http://www.w3.org/2000/svg" viewBox="0 0 32 32"><path d="M25 13V9c0-4.971-4.029-9-9-9S7 4.029 7 9v4a3 3 0 0 0-3 3v7a9 9 0 0 0 9 9h6a9 9 0 0 0 9-9v-7a3 3 0 0 0-3-3zM9 9a7 7 0 1 1 14 0v4h-2V9.002c0-2.762-2.238-5-5-5s-5 2.238-5 5V13H9V9zm11 0v4h-8V9a4 4 0 0 1 8 0zm6 10v4c0 3.859-3.141 7-7 7h-6c-3.859 0-7-3.141-7-7v-7a1 1 0 0 1 1-1h18c.551 0 1 .448 1 1v3zm-10 0a2 2 0 0 1 2 2c0 .609-.328 1.768-.666 2.682-.273.738-.552 1.316-1.334 1.316-.719 0-1.061-.584-1.333-1.326C14.333 22.76 14 21.607 14 21a2 2 0 0 1 2-2z"/></svg>