<?xml version="1.0" encoding="utf-8"?><svg fill="#ffffff" width="undefined" height="undefined" xmlns="http://www.w3.org/2000/svg" viewBox="0 0 32 32"><path d="M28 5H4a4 4 0 0 0-4 4v13a4 4 0 0 0 4 4h24a4 4 0 0 0 4-4V9a4 4 0 0 0-4-4zM2 10.25l6.999 5.25L2 20.75v-10.5zM30 22c0 1.104-.898 2-2 2H4c-1.103 0-2-.896-2-2l7.832-5.875 4.368 3.277a3 3 0 0 0 3.599 0l4.369-3.277L30 22zm0-1.25l-7-5.25 7-5.25v10.5zm-12.801-2.148c-.349.262-.763.4-1.199.4s-.851-.139-1.2-.4L2 9c0-1.103.897-2 2-2h24c1.102 0 2 .897 2 2l-12.801 9.602z"/></svg>