<?xml version="1.0" encoding="utf-8"?><svg fill="#ffffff" width="undefined" height="undefined" xmlns="http://www.w3.org/2000/svg" viewBox="0 0 32 32"><path d="M25 0c-2.053 0-3.666 1.41-4.824 3.586l-.021-.012C18.473 6.867 15.969 9 13.226 9H4c-2.243 0-4 2.197-4 5 0 2.805 1.757 5 4 5a2 2 0 0 1 1.995 2v9a2 2 0 0 0 2 2h4a2 2 0 0 0 2-2v-1c0-1-1-1.447-1-2v-7c0-.023.016-.039.018-.062a.992.992 0 0 1 .112-.395.675.675 0 0 1 .059-.088.989.989 0 0 1 .304-.293c.006-.004.008-.01.014-.014.004 0 .007-.004.011-.004.08-.045.176-.055.266-.08 2.524.268 4.809 2.305 6.377 5.373l.025-.012C21.34 26.594 22.949 28 25 28c4.596 0 7-7.043 7-14S29.596 0 25 0zm-5 14c0-1.037.061-2.039.164-3H23c1.104 0 2 1.344 2 3 0 1.658-.896 3-2 3h-2.836A28.105 28.105 0 0 1 20 14zM2 14c0-1.656.896-3 2-3h7.014c-.62.729-1.014 1.787-1.014 3 0 1.215.394 2.273 1.014 3H4c-1.104 0-2-1.342-2-3zm9.995 16h-4v-9a3.97 3.97 0 0 0-.537-2h.698v.012h3.008a3.023 3.023 0 0 0-.169.988v7c0 .963.538 1.604.859 1.986.044.053.096.107.141.166V30zm1.231-12.988H13V17c-1.104 0-2-1.342-2-3 0-1.656.896-3 2-3h.226c1.886 0 3.652-.742 5.206-2.018A28.918 28.918 0 0 0 18 14c0 1.709.146 3.42.434 5.031-1.555-1.277-3.322-2.019-5.208-2.019zM25 26c-2.018 0-3.75-2.871-4.541-7H23c2.242 0 4-2.195 4-5 0-2.803-1.758-5-4-5h-2.541C21.25 4.873 22.982 2 25 2c2.762 0 5 5.373 5 12s-2.238 12-5 12z"/></svg>