<?xml version="1.0" encoding="utf-8"?><svg fill="#ffffff" width="undefined" height="undefined" xmlns="http://www.w3.org/2000/svg" viewBox="0 0 32 32"><path d="M31.414 7.585l-6-6A2.001 2.001 0 0 0 24 1H3C1.346 1 0 2.345 0 4v24c0 1.654 1.346 3 3 3h26c1.654 0 3-1.346 3-3V9c0-.531-.211-1.04-.586-1.415zM30 28a1 1 0 0 1-1 1H3a1 1 0 0 1-1-1V4a1 1 0 0 1 1-1h20v4h-.002a3 3 0 0 0 3 3H30v18zM26.998 9h-1c-1.102 0-2-.897-2-2H24V3l6 6h-3.002zM15.5 8a.5.5 0 1 1 0-1h5a.5.5 0 0 1 0 1h-5zm0 3a.5.5 0 0 1 0-1h5a.5.5 0 0 1 0 1h-5zm-.5 2.5a.5.5 0 0 1 .5-.5h12a.5.5 0 0 1 0 1h-12a.5.5 0 0 1-.5-.5zM27.5 19a.5.5 0 0 1 0 1h-23a.5.5 0 0 1 0-1h23zm0 3a.5.5 0 0 1 0 1h-23a.5.5 0 0 1 0-1h23zm0 3a.5.5 0 0 1 0 1h-23a.5.5 0 0 1 0-1h23zm0-9a.5.5 0 0 1 0 1h-23a.5.5 0 1 1 0-1h23zM5 14h7a1 1 0 0 0 1-1V7a1 1 0 0 0-1-1H5a1 1 0 0 0-1 1v6a1 1 0 0 0 1 1zm1-6h5v4H6V8z"/></svg>