<?xml version="1.0" encoding="utf-8"?><svg fill="#ffffff" width="undefined" height="undefined" xmlns="http://www.w3.org/2000/svg" viewBox="0 0 32 32"><path d="M8 6.021V3c0-1.654-1.346-3-3-3S2 1.346 2 3v3.021C.792 6.936 0 8.369 0 10s.792 3.064 2 3.977V29c0 1.654 1.346 3 3 3s3-1.346 3-3V13.977c1.208-.912 2-2.346 2-3.977s-.792-3.064-2-3.979zM4 3a1 1 0 1 1 2 0v2.1a5.062 5.062 0 0 0-2 0V3zm2 26a1 1 0 1 1-2 0V14.898a4.916 4.916 0 0 0 2 0V29zm1.865-18.16c-.016.053-.03.105-.049.158a2.944 2.944 0 0 1-.378.736l-.014.016a3.026 3.026 0 0 1-.616.627l-.01.008c-.241.182-.51.328-.799.43-.313.113-.646.185-.999.185s-.686-.072-1-.186a2.962 2.962 0 0 1-.799-.43l-.01-.008a3.026 3.026 0 0 1-.616-.627l-.014-.016a2.979 2.979 0 0 1-.378-.736c-.019-.053-.033-.105-.049-.158A2.945 2.945 0 0 1 2 10c0-.295.055-.574.135-.842.016-.053.03-.105.049-.156.094-.264.216-.514.378-.738l.014-.016c.174-.236.381-.449.616-.627l.01-.008c.24-.179.509-.326.798-.429C4.314 7.072 4.647 7 5 7s.686.072 1 .184c.289.104.558.25.799.43l.01.008c.235.178.442.391.616.627l.014.016a2.931 2.931 0 0 1 .426.893c.08.268.135.547.135.842 0 .293-.055.572-.135.84zM30 6.021V3c0-1.654-1.346-3-3-3s-3 1.346-3 3v3.021c-1.209.915-2 2.348-2 3.979s.791 3.064 2 3.977V29c0 1.654 1.346 3 3 3s3-1.346 3-3V13.977c1.207-.912 2-2.346 2-3.977s-.793-3.064-2-3.979zM26 3a1 1 0 1 1 2 0v2.1a5.077 5.077 0 0 0-2 0V3zm2 26a1 1 0 1 1-2 0V14.898a4.902 4.902 0 0 0 2 0V29zm1.865-18.16c-.016.053-.031.105-.049.158a2.947 2.947 0 0 1-.379.736l-.014.016a3.046 3.046 0 0 1-.615.627l-.01.008c-.242.182-.51.328-.799.43A2.932 2.932 0 0 1 27 13a2.91 2.91 0 0 1-1-.186 2.947 2.947 0 0 1-.809-.438 3.006 3.006 0 0 1-.617-.627l-.014-.016a2.975 2.975 0 0 1-.377-.736c-.02-.053-.033-.105-.049-.158A2.945 2.945 0 0 1 24 10c0-.295.055-.574.135-.842.016-.053.029-.105.049-.156.094-.264.217-.514.377-.738l.014-.016c.174-.236.381-.449.617-.627l.01-.008c.24-.18.51-.326.799-.43A2.97 2.97 0 0 1 27 7c.352 0 .686.072 1 .184a3.093 3.093 0 0 1 .809.438c.234.178.441.391.615.627l.014.016c.162.225.283.475.379.738.018.051.033.104.049.156.079.267.134.546.134.841 0 .293-.055.572-.135.84zM19 18.021V3c0-1.654-1.346-3-3-3s-3 1.346-3 3v15.021c-1.208.914-2 2.348-2 3.979s.792 3.064 2 3.977V29c0 1.654 1.346 3 3 3s3-1.346 3-3v-3.023c1.207-.912 2-2.346 2-3.977s-.793-3.064-2-3.979zM15 3a1 1 0 1 1 2 0v14.1a5.062 5.062 0 0 0-2 0V3zm2 26a1 1 0 1 1-2 0v-2.102a4.916 4.916 0 0 0 2 0V29zm1.865-6.16c-.016.053-.031.105-.049.158a2.947 2.947 0 0 1-.379.736l-.014.016a3.046 3.046 0 0 1-.615.627l-.01.008c-.242.182-.51.328-.799.43-.313.113-.647.185-.999.185s-.686-.072-1-.186a2.962 2.962 0 0 1-.799-.43l-.01-.008a3.026 3.026 0 0 1-.616-.627l-.014-.016a2.979 2.979 0 0 1-.378-.736c-.019-.053-.033-.105-.049-.158A2.945 2.945 0 0 1 13 22c0-.295.055-.574.135-.842.016-.053.03-.105.049-.156.095-.264.217-.514.378-.738l.014-.016c.174-.236.381-.449.616-.627l.01-.008c.241-.18.51-.326.799-.43.313-.111.646-.183.999-.183.352 0 .686.072 1 .184a3.093 3.093 0 0 1 .809.438c.234.178.441.391.615.627l.014.016c.162.225.283.475.379.738.018.051.033.104.049.156.079.267.134.546.134.841 0 .293-.055.572-.135.84z"/></svg>