<?xml version="1.0" encoding="utf-8"?><svg fill="#ffffff" width="undefined" height="undefined" xmlns="http://www.w3.org/2000/svg" viewBox="0 0 32 32"><path d="M29.395 2.58C27.75.937 25.584 0 23.449 0c-1.801 0-3.459.668-4.67 1.877l-4.867 4.904c-.015.014-.032.023-.047.038-.008.008-.013.019-.021.026l.002.002L3.517 17.256a4.023 4.023 0 0 0-1.013 1.705L.155 27.469C.153 27.492 0 28.16 0 28.5 0 30.432 1.569 32 3.504 32c.385 0 1.13-.184 1.157-.188l8.478-2.229a4.021 4.021 0 0 0 1.705-1.016l15.263-15.383c2.776-2.778 2.463-7.434-.712-10.604zM16.014 23.795a8.145 8.145 0 0 0-.719-2.627l9.455-9.454c.578 1.826.281 3.736-.986 5.004-.008.008-.018.013-.025.021l.014.013-7.728 7.79c0-.249.012-.493-.011-.747zm-1.221-3.539c-.373-.613-.797-1.205-1.322-1.729-.611-.611-1.312-1.09-2.044-1.492l9.532-9.532a6.939 6.939 0 0 1 2.098 1.438 6.976 6.976 0 0 1 1.281 1.771l-9.545 9.544zm-4.307-3.694a7.976 7.976 0 0 0-2.868-.599l7.703-7.762c1.179-1.15 2.896-1.481 4.587-1.062l-9.422 9.423zM4.167 29.873c-.109.025-.448.111-.678.127A1.505 1.505 0 0 1 2 28.5c.012-.168.079-.457.102-.562l1.053-3.814c1.143-.031 2.373.414 3.34 1.383.982.98 1.444 2.234 1.394 3.391l-3.722.975zm4.707-1.236c-.024-1.342-.57-2.738-1.672-3.838-1.042-1.043-2.406-1.645-3.766-1.699l.996-3.607c.072-.24.215-.477.391-.684 2.006-1.436 5.091-1.012 7.234 1.133 2.267 2.266 2.617 5.586.871 7.568a1.97 1.97 0 0 1-.359.156l-3.695.971zm19.817-16.865l-1.684 1.697c0-.226.027-.443.006-.674-.176-1.935-1.078-3.806-2.543-5.269-1.629-1.63-3.789-2.565-5.928-2.571l1.656-1.67C21.027 2.458 22.184 2 23.449 2c1.609 0 3.262.728 4.533 1.995 1.193 1.191 1.904 2.671 2.006 4.168.094 1.397-.367 2.678-1.297 3.609z"/></svg>