<?xml version="1.0" encoding="utf-8"?><svg fill="#ffffff" width="undefined" height="undefined" xmlns="http://www.w3.org/2000/svg" viewBox="0 0 32 32"><path d="M27 0H5a4 4 0 0 0-4 4v24a4 4 0 0 0 4 4h22a4 4 0 0 0 4-4V4a4 4 0 0 0-4-4zm2 28c0 1.102-.898 2-2 2H5c-1.103 0-2-.898-2-2V4c0-1.103.897-2 2-2h22c1.102 0 2 .897 2 2v24zM26 4H6a1 1 0 0 0-1 1v18a1 1 0 0 0 1 1h20a1 1 0 0 0 1-1V5a1 1 0 0 0-1-1zm0 1v13.869l-3.25-3.53a1 1 0 0 0-1.5 0l-2.604 2.95-7.896-8.95a.998.998 0 0 0-1.5 0L6 13.087V5h20zM6 14.6l4-4.6 8.646 9.801L21.408 23H6v-8.4zM22.74 23l-3.428-3.955L22 16l4 4.379V23h-3.26zM20 13a3 3 0 1 0 0-6 3 3 0 0 0 0 6zm0-5c1.102 0 2 .897 2 2s-.898 2-2 2c-1.104 0-2-.897-2-2s.896-2 2-2z"/></svg>