<?xml version="1.0" encoding="utf-8"?><svg fill="#ffffff" width="undefined" height="undefined" xmlns="http://www.w3.org/2000/svg" viewBox="0 0 32 32"><path d="M30.391 12.68l-3.064-.614a12.098 12.098 0 0 0-.537-1.289l1.736-2.604a1.999 1.999 0 0 0-.25-2.523l-1.924-1.924a1.996 1.996 0 0 0-2.523-.25l-2.604 1.735a12.09 12.09 0 0 0-1.291-.536L19.32 1.61A1.998 1.998 0 0 0 17.359.002h-2.72a2 2 0 0 0-1.961 1.608l-.614 3.065c-.443.154-.873.335-1.289.536L8.172 3.476a1.996 1.996 0 0 0-2.524.25L3.725 5.65a2 2 0 0 0-.25 2.523l1.735 2.604c-.202.417-.382.847-.536 1.29l-3.066.613A2 2 0 0 0 0 14.641v2.72a2 2 0 0 0 1.608 1.961l3.065.615c.154.443.335.873.536 1.289L3.475 23.83a1.999 1.999 0 0 0 .25 2.523l1.924 1.924a1.996 1.996 0 0 0 2.523.25l2.604-1.736c.417.203.847.383 1.29.537l.613 3.064a2 2 0 0 0 1.961 1.609h2.72a2 2 0 0 0 1.961-1.609l.615-3.064c.443-.154.873-.336 1.289-.537l2.604 1.736a1.998 1.998 0 0 0 2.523-.25l1.924-1.924a2 2 0 0 0 .25-2.523l-1.736-2.604c.203-.418.383-.848.537-1.291l3.064-.613A2 2 0 0 0 32 17.361v-2.72c0-.953-.674-1.774-1.609-1.961zm-3.457 5.295a1.997 1.997 0 0 0-1.496 1.305c-.129.369-.279.727-.447 1.074a1.996 1.996 0 0 0 .135 1.982l1.736 2.604-1.924 1.924-2.604-1.736a1.997 1.997 0 0 0-1.98-.137c-.348.168-.705.32-1.076.449a1.998 1.998 0 0 0-1.303 1.496l-.615 3.066h-2.72l-.613-3.066a1.997 1.997 0 0 0-1.304-1.496 10.17 10.17 0 0 1-1.075-.447 1.994 1.994 0 0 0-1.981.135l-2.604 1.736-1.924-1.924 1.735-2.604c.393-.59.444-1.344.137-1.98a10.106 10.106 0 0 1-.448-1.076 2 2 0 0 0-1.496-1.303l-3.065-.615L2 14.641l3.066-.613a1.999 1.999 0 0 0 1.496-1.304c.129-.369.278-.728.447-1.075a1.995 1.995 0 0 0-.136-1.981L5.139 7.064 7.062 5.14l2.604 1.735a1.997 1.997 0 0 0 1.98.137 10.09 10.09 0 0 1 1.075-.448 1.999 1.999 0 0 0 1.304-1.496l.614-3.065 2.72-.001.613 3.066a1.998 1.998 0 0 0 1.305 1.496c.369.129.727.278 1.074.447a1.998 1.998 0 0 0 1.982-.136l2.604-1.735 1.924 1.924-1.736 2.604a2.006 2.006 0 0 0-.137 1.98c.168.347.32.705.449 1.075a1.997 1.997 0 0 0 1.496 1.304l3.064.614.003 2.72-3.066.614zM16 9.001A7 7 0 1 0 16.001 23 7 7 0 0 0 16 9zm0 13.126c-3.382 0-6.125-2.744-6.125-6.125S12.618 9.877 16 9.877a6.127 6.127 0 0 1 6.125 6.125A6.127 6.127 0 0 1 16 22.127zm0-10.126c-2.21 0-4 1.79-4 4s1.79 4 4 4a4 4 0 0 0 0-8zm0 7.001a3.001 3.001 0 0 1 0-6 3.001 3.001 0 0 1 0 6z"/></svg>