<?xml version="1.0" encoding="utf-8"?><svg fill="#ffffff" width="undefined" height="undefined" xmlns="http://www.w3.org/2000/svg" viewBox="0 0 32 32"><path d="M26.998 14.003c0-4.962-4.037-9-9-8.999V5A.5.5 0 0 1 18 4c.01 0 .018.004.025.006a9.996 9.996 0 0 1 9.973 9.986L28 14a.5.5 0 0 1-1 .003h-.002zM9.121.878a2.996 2.996 0 0 0-3.268-.65A2.999 2.999 0 0 0 4 3l-.001 13.757-3.12 3.122a2.998 2.998 0 0 0 0 4.242l7 7C8.465 31.707 9.232 32 10 32s1.535-.293 2.121-.879L15.242 28h13.756c1.215 0 2.309-.73 2.771-1.852a2.998 2.998 0 0 0-.65-3.27L9.121.878zm4.707 25.708l-3.121 3.121a1 1 0 0 1-1.414 0l-7-7a.998.998 0 0 1 0-1.414l3.12-3.121c.009-.01.012-.021.021-.031l8.425 8.426c-.009.007-.022.009-.031.019zM15.242 26c-.155 0-.299.055-.447.088L5.91 17.203c.034-.148.089-.292.089-.446L6 4.711 27.287 26H15.242zm14.68-.617a.995.995 0 0 1-.924.617h-.297L6 3.297V3a.996.996 0 0 1 .999-1c.268 0 .519.104.707.292l21.999 22.001a.996.996 0 0 1 .217 1.09zM17.998 2A1 1 0 0 1 18 0c.01 0 .018.004.025.005 7.717.014 13.967 6.269 13.973 13.987L32 14a1 1 0 0 1-2 .004h-.002c0-6.617-5.383-12-12-12V2z"/></svg>