<?xml version="1.0" encoding="utf-8"?><svg fill="#ffffff" width="undefined" height="undefined" xmlns="http://www.w3.org/2000/svg" viewBox="0 0 32 32"><path d="M31.924 18.455L27.922 3.449A2.005 2.005 0 0 0 26 2H6c-.89 0-1.68.596-1.922 1.449L.076 18.455A2.018 2.018 0 0 0 0 19v7a4 4 0 0 0 4 4h24a4 4 0 0 0 4-4v-7c0-.18-.025-.363-.076-.545zM30 26c0 1.102-.898 2-2 2H4c-1.103 0-2-.898-2-2v-7L6.001 3.999h19.997L30 19v7zM23.742 6H8.258c-.453 0-.85.305-.967.743l-3.445 12A1 1 0 0 0 4.812 20H9.38l1.447 2.895A2.003 2.003 0 0 0 12.617 24h6.766c.758 0 1.449-.428 1.789-1.105L22.619 20h4.568a1 1 0 0 0 .967-1.258l-3.445-12A1 1 0 0 0 23.742 6zm.539 12h-1.662c-.762 0-1.447.422-1.789 1.105L19.383 22h-6.766l-1.447-2.895A1.989 1.989 0 0 0 9.381 18H5.334L8.258 7h15.484l2.924 11h-2.385z"/></svg>