<?xml version="1.0" encoding="utf-8"?><svg fill="#ffffff" width="undefined" height="undefined" xmlns="http://www.w3.org/2000/svg" viewBox="0 0 32 32"><path d="M32 8a2.987 2.987 0 0 0-2.326-2.924L16.661 2.073a3.016 3.016 0 0 0-1.336.003l-12.999 3C.956 5.392 0 6.594 0 8s.957 2.608 2.325 2.924L5 11.541V20c0 2.654 3.038 5 11 5s11-2.346 11-5v-8.459l2.674-.617A2.987 2.987 0 0 0 32 8zm-7 12c0 1.105-3 3-9 3s-9-1.895-9-3v-7.997l8.338 1.924a3.025 3.025 0 0 0 1.336-.003L25 12.003V20zm-8.775-8.025a1.077 1.077 0 0 1-.45 0l-13-3a1 1 0 0 1 0-1.95l13-3a1.063 1.063 0 0 1 .45 0l13 3a1.001 1.001 0 0 1 0 1.95l-13 3zM29 13a1 1 0 1 1 2 0v9a1 1 0 1 1-2 0v-9zm1 11c1.104 0 2 2.896 2 4a2 2 0 0 1-4 0c0-1.104.895-4 2-4z"/></svg>