<?xml version="1.0" encoding="utf-8"?><svg fill="#ffffff" width="undefined" height="undefined" xmlns="http://www.w3.org/2000/svg" viewBox="0 0 32 32"><path d="M31.25 6.438l-5-4A2.003 2.003 0 0 0 25 2H7a2 2 0 0 0-1.25.438l-5 4a2.001 2.001 0 0 0-.647 2.195l2 6A2 2 0 0 0 5 15.732V28a2 2 0 0 0 2 2h18a2 2 0 0 0 2-2V15.732a2.002 2.002 0 0 0 1.648.16 1.998 1.998 0 0 0 1.248-1.259l2-6a2 2 0 0 0-.646-2.195zM19.754 4C19.201 5.161 17.736 6 16 6s-3.202-.839-3.754-2h7.508zM28 14l-3-2v16H7V12l-3 2-2-6 5-4h4.177c.557 1.722 2.496 3 4.823 3s4.266-1.278 4.822-3H25l5 4-2 6z"/></svg>