<?xml version="1.0" encoding="utf-8"?><svg fill="#ffffff" width="undefined" height="undefined" xmlns="http://www.w3.org/2000/svg" viewBox="0 0 32 32"><path d="M22.17 8.624c-2.707-.557-5.455-.839-8.165-.839s-5.457.282-8.165.839c-.35.072-.636.326-.749.667-1.442 4.381-1.442 8.823 0 13.204a1 1 0 0 0 .749.666 40.69 40.69 0 0 0 8.165.839 40.62 40.62 0 0 0 8.165-.84c.352-.072.637-.326.75-.666 1.441-4.381 1.441-8.823 0-13.204a1.003 1.003 0 0 0-.75-.666zm-.201 13.558a39.196 39.196 0 0 1-15.927 0c-1.381-4.193-1.381-8.385 0-12.579a39.16 39.16 0 0 1 15.927 0c1.381 4.193 1.381 8.385 0 12.579zM30.854 6.32a2 2 0 0 0-1.705-1.522C24.789 4.268 20.367 4 16.005 4s-8.783.268-13.143.797A1.999 1.999 0 0 0 1.158 6.32a41.429 41.429 0 0 0 0 19.36 1.996 1.996 0 0 0 1.704 1.521c2.101.256 4.216.443 6.331.576-.114.073-.188.147-.188.223 0 .553 3.134 1 7 1s7-.447 7-1c0-.076-.074-.15-.188-.223 2.115-.133 4.23-.32 6.33-.576.83-.1 1.512-.707 1.705-1.521a41.403 41.403 0 0 0 .002-19.36zm-1.946 18.897a106.799 106.799 0 0 1-25.805 0c-1.463-6.145-1.463-12.29 0-18.434a106.697 106.697 0 0 1 25.805 0c1.463 6.144 1.463 12.289 0 18.434zM26.506 12a1.5 1.5 0 1 0-.001-3.001A1.5 1.5 0 0 0 26.506 12zm0-2c.275 0 .5.225.5.5s-.225.5-.5.5-.5-.225-.5-.5.224-.5.5-.5zm1 12a.5.5 0 0 1 0 1h-3a.5.5 0 0 1 0-1h3zm1-3a.5.5 0 0 1 0 1h-3a.5.5 0 0 1 0-1h3zm0-3a.5.5 0 0 1 0 1h-3a.5.5 0 1 1 0-1h3zm-15.001-4.196c.276-.011.5.204.5.48s-.225.508-.5.518l-3.749.257a.669.669 0 0 0-.564.546L9.025 15.5c-.011.275-.245.5-.518.5s-.487-.225-.473-.5l.305-2.786a.706.706 0 0 1 .58-.551l4.586-.359z"/></svg>