<?xml version="1.0" encoding="utf-8"?><svg fill="#ffffff" width="undefined" height="undefined" xmlns="http://www.w3.org/2000/svg" viewBox="0 0 32 32"><path d="M30 6h-.887c-.525 0-1.029.207-1.404.576L25 9.248V8a3 3 0 0 0-3-3H3C1.346 5 0 6.345 0 8v16a3 3 0 0 0 3 3h19c1.656 0 3-1.344 3-3v-1.221l2.709 2.672c.375.369.879.576 1.404.576H30a2 2 0 0 0 2-2V8a2 2 0 0 0-2-2zM3 25c-.552 0-1-.449-1-1V8a1 1 0 0 1 1-1h19c.551 0 1 .448 1 1v16c0 .551-.449 1-1 1H3zm27-.973h-1l-4-4V20l-1-1v-6l5-5h1v16.027z"/></svg>