<?xml version="1.0" encoding="utf-8"?><svg fill="#ffffff" width="undefined" height="undefined" xmlns="http://www.w3.org/2000/svg" viewBox="0 0 32 32"><path d="M21.951 1.15c-8.202-3.284-17.515.702-20.8 8.905-3.286 8.204.702 17.518 8.905 20.802s17.516-.702 20.801-8.905c3.286-8.204-.703-17.516-8.906-20.802zM10.8 29.001C3.634 26.131.138 17.967 3.007 10.8S14.042.137 21.209 3.008c7.166 2.869 10.662 11.034 7.793 18.2-2.871 7.167-11.035 10.662-18.202 7.793zm5.949-14.854a2.001 2.001 0 0 0-1.489 3.713 2.001 2.001 0 0 0 1.489-3.713zm-1.117 2.786a1.003 1.003 0 0 1-.557-1.301 1.003 1.003 0 0 1 1.301-.557 1 1 0 0 1-.744 1.858zm2.602-6.498a6 6 0 1 0-4.46 11.14 6 6 0 0 0 4.46-11.14zm-3.716 9.282a4.005 4.005 0 0 1-2.227-5.2 4.005 4.005 0 0 1 5.199-2.227 4.007 4.007 0 0 1 2.229 5.201 4.005 4.005 0 0 1-5.201 2.226zm8.914-.739h-.002a7.978 7.978 0 0 1-4.256 4.366c-.007.003-.011.011-.021.015a.5.5 0 0 1-.394-.919 6.98 6.98 0 0 0 3.744-3.834v.001a.5.5 0 1 1 .929.371zm3.433.836a.501.501 0 0 1 .279.65 11.962 11.962 0 0 1-6.385 6.548c-.012.005-.021.016-.033.022a.5.5 0 1 1-.394-.919 10.965 10.965 0 0 0 5.883-6.023.5.5 0 0 1 .65-.278zm-1.857-.743a.501.501 0 0 1 .279.65 9.967 9.967 0 0 1-5.32 5.456c-.011.006-.017.015-.027.02a.5.5 0 1 1-.392-.92h-.002a8.958 8.958 0 0 0 4.812-4.928.5.5 0 0 1 .65-.278zM13.513 8.912a.501.501 0 0 1-.263.658 6.975 6.975 0 0 0-3.743 3.832h-.001a.5.5 0 1 1-.928-.372h.001a7.978 7.978 0 0 1 4.256-4.366c.007-.003.012-.011.021-.014a.5.5 0 0 1 .657.262zm-1.575-3.677a.501.501 0 0 1-.262.657 10.97 10.97 0 0 0-5.883 6.022.5.5 0 1 1-.928-.373 11.962 11.962 0 0 1 6.385-6.548c.01-.005.019-.016.031-.021a.501.501 0 0 1 .657.263zm.524 2.494v.003A8.965 8.965 0 0 0 7.65 12.66a.5.5 0 1 1-.927-.373 9.97 9.97 0 0 1 5.32-5.458c.01-.004.016-.014.026-.018a.5.5 0 1 1 .394.918z"/></svg>