<?xml version="1.0" encoding="utf-8"?><svg fill="#ffffff" width="undefined" height="undefined" xmlns="http://www.w3.org/2000/svg" viewBox="0 0 32 32"><path d="M15.5 0C6.939 0 0 6.939 0 15.5S6.939 31 15.5 31 31 24.061 31 15.5 24.061 0 15.5 0zm13.475 15h-5.996c-.055-2.215-.449-4.331-1.148-6.268a16.334 16.334 0 0 0 3.736-2.197A13.433 13.433 0 0 1 28.975 15zM14.947 28.972c-1.662-1.384-3.056-3.181-4.076-5.268A15.497 15.497 0 0 1 15 23.025v5.949l-.053-.002zm1.104-26.944c1.886 1.57 3.425 3.673 4.466 6.126-1.426.487-2.941.77-4.518.82V2.025l.052.003zm1.666.17a13.463 13.463 0 0 1 7.164 3.614 15.297 15.297 0 0 1-3.428 1.998c-.91-2.157-2.187-4.064-3.736-5.612zM15 2.025v6.949a15.492 15.492 0 0 1-4.518-.82c1.041-2.453 2.58-4.556 4.466-6.126L15 2.025zM9.546 7.811a15.335 15.335 0 0 1-3.427-1.998 13.46 13.46 0 0 1 7.164-3.614c-1.55 1.547-2.826 3.454-3.737 5.612zm.559 1.265c1.542.535 3.185.847 4.895.899V15H9.021c.054-2.094.425-4.095 1.084-5.924zM15 16v6.025a16.411 16.411 0 0 0-4.539.769A18.785 18.785 0 0 1 9.021 16H15zm-1.717 12.802a13.431 13.431 0 0 1-6.545-3.052 15.199 15.199 0 0 1 3.188-1.7 17.317 17.317 0 0 0 3.357 4.752zm2.717.173v-5.949c1.432.046 2.82.27 4.129.679-1.021 2.087-2.414 3.884-4.076 5.268l-.053.002zm5.074-4.925a15.32 15.32 0 0 1 3.188 1.7 13.44 13.44 0 0 1-6.545 3.052 17.338 17.338 0 0 0 3.357-4.752zm-.535-1.256A16.424 16.424 0 0 0 16 22.025V16h5.979a18.806 18.806 0 0 1-1.44 6.794zM16 15V9.975a16.44 16.44 0 0 0 4.895-.898c.658 1.829 1.029 3.83 1.084 5.924H16zM5.434 6.535a16.35 16.35 0 0 0 3.735 2.197C8.47 10.669 8.076 12.785 8.021 15H2.025a13.429 13.429 0 0 1 3.409-8.465zM2.025 16h5.996a19.724 19.724 0 0 0 1.503 7.137 16.23 16.23 0 0 0-3.538 1.931A13.463 13.463 0 0 1 2.025 16zm22.989 9.067a16.256 16.256 0 0 0-3.539-1.931 19.725 19.725 0 0 0 1.504-7.137h5.996a13.464 13.464 0 0 1-3.961 9.068z"/></svg>