<?xml version="1.0" encoding="utf-8"?>
<!-- Generated by IcoMoon.io -->
<!DOCTYPE svg PUBLIC "-//W3C//DTD SVG 1.1//EN" "http://www.w3.org/Graphics/SVG/1.1/DTD/svg11.dtd">
<svg version="1.1" xmlns="http://www.w3.org/2000/svg" xmlns:xlink="http://www.w3.org/1999/xlink" width="32" height="32" viewBox="0 0 32 32">
<path d="M29.363 4.637c3.516 3.514 3.516 9.213 0 12.727l-10.967 10.968c-0.391 0.392-1.023 0.392-1.414 0-0.393-0.391-0.393-1.022 0-1.414l10.826-10.827c2.734-2.734 2.734-7.164-0.002-9.899-2.73-2.734-7.164-2.734-9.898 0l-14.447 14.277c-1.953 1.952-1.953 5.118 0 7.070 1.953 1.953 5.117 1.953 7.070 0l14.59-14.417c1.17-1.17 1.17-3.073 0-4.243s-3.072-1.169-4.242 0l-10.969 10.969c-0.391 0.391-1.023 0.391-1.414 0-0.391-0.392-0.391-1.023 0-1.415l10.968-10.968c1.951-1.952 5.117-1.952 7.070 0s1.953 5.118 0 7.071l-14.59 14.418c-2.728 2.729-7.169 2.729-9.898 0s-2.729-7.171 0-9.9l14.59-14.417c3.514-3.516 9.213-3.516 12.727 0z"></path>
</svg>
