<?xml version="1.0" encoding="utf-8"?>
<!-- Generated by IcoMoon.io -->
<!DOCTYPE svg PUBLIC "-//W3C//DTD SVG 1.1//EN" "http://www.w3.org/Graphics/SVG/1.1/DTD/svg11.dtd">
<svg version="1.1" xmlns="http://www.w3.org/2000/svg" xmlns:xlink="http://www.w3.org/1999/xlink" width="32" height="32" viewBox="0 0 32 32">
<path d="M15 10c0-0.552 0.448-1 1-1s1 0.448 1 1c0 0.552-0.448 1-1 1s-1-0.448-1-1zM15 22c0-0.552 0.448-1 1-1s1 0.448 1 1c0 0.552-0.448 1-1 1s-1-0.448-1-1zM9 16c0-0.552 0.448-1 1-1s1 0.448 1 1c0 0.552-0.448 1-1 1s-1-0.448-1-1zM21 16c0-0.552 0.448-1 1-1s1 0.448 1 1c0 0.552-0.448 1-1 1s-1-0.448-1-1zM10.757 20.242c0-0.552 0.448-1 1-1s1 0.448 1 1c0 0.552-0.448 1-1 1s-1-0.448-1-1zM10.757 11.757c0-0.552 0.448-1 1-1s1 0.448 1 1c0 0.552-0.448 1-1 1s-1-0.448-1-1zM19.242 20.242c0-0.552 0.448-1 1-1s1 0.448 1 1c0 0.552-0.448 1-1 1s-1-0.448-1-1zM26 14c-0.070 0-0.129 0.033-0.197 0.040-0.348-1.745-1.17-3.306-2.297-4.594l-1.436-7.812c-0.175-0.947-1.002-1.634-1.966-1.634h-8c-0.964 0-1.79 0.688-1.967 1.635l-1.4 7.549c-1.68 1.787-2.737 4.168-2.737 6.816 0 2.583 1.014 4.905 2.621 6.678l1.412 7.688c0.176 0.946 1.003 1.634 1.967 1.634h8c0.963 0 1.789-0.688 1.967-1.635l1.424-7.682c1.189-1.311 2.053-2.92 2.412-4.725 0.068 0.009 0.127 0.042 0.197 0.042 1.104 0 2-0.896 2-2 0-1.105-0.896-2-2-2zM12.104 2h8l1 5.387c-1.477-0.859-3.168-1.387-5-1.387-1.831 0-3.523 0.528-5 1.387l1-5.387zM20 30h-8l-1-5.387c1.476 0.858 3.168 1.387 5 1.387 1.831 0 3.524-0.529 5-1.387l-1 5.387zM16 24c-4.411 0-8-3.59-8-8s3.589-8 8-8c4.411 0 8 3.589 8 8 0 4.41-3.59 8-8 8zM20.941 11.026c0.121 0.121 0.133 0.316 0.028 0.449l-2.426 3.021-1.848 2.225c-0.189 0.182-0.449 0.275-0.699 0.277-0.269-0.002-0.52-0.106-0.707-0.292s-0.289-0.435-0.289-0.698c0-0.272 0.105-0.526 0.296-0.718l5.192-4.285c0.137-0.11 0.332-0.1 0.453 0.021z"></path>
</svg>
