<?xml version="1.0" encoding="utf-8"?>
<!-- Generated by IcoMoon.io -->
<!DOCTYPE svg PUBLIC "-//W3C//DTD SVG 1.1//EN" "http://www.w3.org/Graphics/SVG/1.1/DTD/svg11.dtd">
<svg version="1.1" xmlns="http://www.w3.org/2000/svg" xmlns:xlink="http://www.w3.org/1999/xlink" width="32" height="32" viewBox="0 0 32 32">
<path d="M27 4.996l-22 0.004c-0.553 0-1 0.443-1 0.996v14c0 0.553 0.447 1 1 1h22c0.553 0 1-0.447 1-1v-14c0-0.553-0.447-1-1-1zM27 20h-22v-14.004h22v14.004zM29 1h-26c-1.657 0-3 1.342-3 3v20c0 1.654 1.338 2.994 2.99 2.998h10.010v1.217l-6.242 0.811c-0.446 0.111-0.758 0.511-0.758 0.97 0 0.553 0.447 1 1 1h18c0.553 0 1-0.447 1-1 0-0.459-0.312-0.859-0.758-0.971l-6.242-0.81v-1.217h10.010c1.652-0.004 2.99-1.344 2.99-2.998v-20c0-1.658-1.344-3-3-3zM30 24c0 0.551-0.449 1-1 1h-26c-0.552 0-1-0.449-1-1v-20c0-0.552 0.448-1 1-1h26c0.551 0 1 0.448 1 1v20z"></path>
</svg>
