<?xml version="1.0" encoding="utf-8"?>
<!-- Generated by IcoMoon.io -->
<!DOCTYPE svg PUBLIC "-//W3C//DTD SVG 1.1//EN" "http://www.w3.org/Graphics/SVG/1.1/DTD/svg11.dtd">
<svg version="1.1" xmlns="http://www.w3.org/2000/svg" xmlns:xlink="http://www.w3.org/1999/xlink" width="32" height="32" viewBox="0 0 32 32">
<path d="M31.965 15.776c-0.010-0.042-0.004-0.087-0.020-0.128-0.006-0.017-0.021-0.026-0.027-0.042-0.010-0.024-0.008-0.051-0.021-0.074-2.9-5.551-9.213-9.528-15.873-9.528-6.661 0-12.973 3.971-15.875 9.521-0.013 0.023-0.011 0.050-0.021 0.074-0.007 0.016-0.021 0.025-0.027 0.042-0.016 0.041-0.010 0.086-0.020 0.128-0.018 0.075-0.035 0.147-0.035 0.224s0.018 0.148 0.035 0.224c0.010 0.042 0.004 0.087 0.020 0.128 0.006 0.017 0.021 0.026 0.027 0.042 0.010 0.024 0.008 0.051 0.021 0.074 2.901 5.551 9.214 9.528 15.875 9.528 6.66 0 12.973-3.971 15.873-9.521 0.014-0.023 0.012-0.050 0.021-0.074 0.006-0.016 0.021-0.025 0.027-0.042 0.016-0.041 0.010-0.086 0.020-0.128 0.017-0.076 0.035-0.148 0.035-0.224s-0.018-0.149-0.035-0.224zM16.023 23.988c-5.615 0-11.112-3.191-13.851-7.995 2.754-4.81 8.243-7.99 13.851-7.99 5.613 0 11.111 3.192 13.85 7.995-2.754 4.811-8.242 7.99-13.85 7.99zM16.023 11.999c0.276 0 0.498 0.223 0.498 0.5 0 0.275-0.223 0.499-0.498 0.499v0.001c-1.654 0-2.999 1.345-2.999 2.997 0 0.276-0.224 0.5-0.499 0.5s-0.5-0.224-0.5-0.5c0-2.205 1.787-3.992 3.992-3.996 0.002 0 0.004-0.001 0.006-0.001zM16 9c-3.867 0-7 3.134-7 7s3.134 7 7 7c3.865 0 7-3.135 7-7 0-3.867-3.135-7-7-7zM16 22c-3.309 0-6-2.691-6-6s2.691-6 6-6c3.309 0 6 2.691 6 6s-2.691 6-6 6z"></path>
</svg>
