<?xml version="1.0" encoding="utf-8"?>
<!-- Generated by IcoMoon.io -->
<!DOCTYPE svg PUBLIC "-//W3C//DTD SVG 1.1//EN" "http://www.w3.org/Graphics/SVG/1.1/DTD/svg11.dtd">
<svg version="1.1" xmlns="http://www.w3.org/2000/svg" xmlns:xlink="http://www.w3.org/1999/xlink" width="32" height="32" viewBox="0 0 32 32">
<path d="M20.682 3.732c-0.473-0.472-1.1-0.732-1.768-0.732s-1.295 0.26-1.77 0.733l-1.41 1.412c-0.473 0.472-0.734 1.1-0.734 1.769 0 0.471 0.129 0.922 0.371 1.313l-13.577 5.439c-0.908 0.399-1.559 1.218-1.742 2.189-0.185 0.977 0.125 1.979 0.834 2.687l12.72 12.58c0.548 0.548 1.276 0.859 2.045 0.877 0.018 0.001 0.060 0.001 0.078 0.001 0.202 0 0.407-0.021 0.61-0.062 0.994-0.206 1.808-0.893 2.177-1.828l5.342-13.376c0.402 0.265 0.875 0.407 1.367 0.407 0.67 0 1.297-0.261 1.768-0.733l1.407-1.408c0.477-0.474 0.738-1.103 0.738-1.773s-0.262-1.3-0.732-1.768l-7.724-7.727zM16.659 29.367c-0.124 0.313-0.397 0.544-0.727 0.612-0.076 0.016-0.153 0.022-0.229 0.021-0.254-0.006-0.499-0.108-0.682-0.292l-12.728-12.588c-0.234-0.233-0.337-0.567-0.275-0.893 0.061-0.324 0.279-0.598 0.582-0.73l6.217-2.49c4.189 1.393 8.379 0.051 12.57 4.522l-4.728 11.838zM26.992 13.58l-1.414 1.413c-0.195 0.196-0.512 0.196-0.707 0l-1.768-1.767-1.432 3.589 0.119-0.303c-3.010-3.005-6.069-3.384-8.829-3.723-0.887-0.109-1.747-0.223-2.592-0.405l8.491-3.401-1.715-1.715c-0.195-0.195-0.195-0.512 0-0.707l1.414-1.415c0.195-0.195 0.512-0.195 0.707 0l7.725 7.727c0.198 0.195 0.198 0.512 0.001 0.707zM16.5 21c1.378 0 2.5-1.121 2.5-2.5s-1.121-2.5-2.5-2.5c-1.379 0-2.5 1.121-2.5 2.5s1.122 2.5 2.5 2.5zM16.5 17c0.828 0 1.5 0.672 1.5 1.5s-0.672 1.5-1.5 1.5c-0.829 0-1.5-0.672-1.5-1.5s0.671-1.5 1.5-1.5zM29.5 0c-1.379 0-2.5 1.121-2.5 2.5s1.121 2.5 2.5 2.5 2.5-1.121 2.5-2.5-1.121-2.5-2.5-2.5zM29.5 4c-0.828 0-1.5-0.672-1.5-1.5s0.672-1.5 1.5-1.5 1.5 0.672 1.5 1.5-0.672 1.5-1.5 1.5zM8 17c0 1.103 0.897 2 2 2s2-0.897 2-2-0.897-2-2-2-2 0.897-2 2zM10 16c0.552 0 1 0.447 1 1s-0.448 1-1 1-1-0.447-1-1 0.448-1 1-1zM12 23c0-0.552 0.448-1 1-1s1 0.448 1 1c0 0.552-0.448 1-1 1s-1-0.448-1-1zM28 8c0-0.552 0.448-1 1-1s1 0.448 1 1c0 0.552-0.448 1-1 1s-1-0.448-1-1z"></path>
</svg>
