<?xml version="1.0" encoding="utf-8"?>
<!-- Generated by IcoMoon.io -->
<!DOCTYPE svg PUBLIC "-//W3C//DTD SVG 1.1//EN" "http://www.w3.org/Graphics/SVG/1.1/DTD/svg11.dtd">
<svg version="1.1" xmlns="http://www.w3.org/2000/svg" xmlns:xlink="http://www.w3.org/1999/xlink" width="32" height="32" viewBox="0 0 32 32">
<path d="M31.286 0.469c-0.363-0.305-0.818-0.469-1.285-0.469-0.115 0-0.232 0.010-0.348 0.031l-17.002 3c-0.956 0.168-1.652 0.998-1.652 1.969v17.17c-1.015-0.736-2.332-1.17-3.794-1.17-0.85 0-1.7 0.141-2.529 0.416-1.898 0.633-3.42 1.902-4.176 3.484-0.584 1.223-0.659 2.553-0.214 3.746 0.761 2.038 2.923 3.354 5.508 3.354 0.85 0 1.7-0.139 2.528-0.416 1.897-0.631 3.419-1.9 4.175-3.48 0.325-0.682 0.477-1.396 0.483-2.104h0.018v-16c0.115 0 0.232-0.010 0.348-0.029l16.655-2.939v12.138c-1.016-0.736-2.332-1.17-3.795-1.17-0.85 0-1.701 0.141-2.529 0.416-1.898 0.633-3.42 1.902-4.174 3.484-0.584 1.223-0.66 2.553-0.215 3.746 0.762 2.038 2.922 3.354 5.508 3.354 0.85 0 1.701-0.139 2.529-0.416 1.896-0.631 3.418-1.9 4.174-3.48 0.326-0.682 0.477-1.396 0.484-2.104h0.018v-21c0-0.59-0.262-1.152-0.715-1.531zM7.688 29.688c-2.396 0.799-4.873 0.018-5.529-1.74-0.658-1.76 0.751-3.834 3.146-4.633 2.396-0.799 4.873-0.020 5.529 1.74 0.659 1.759-0.75 3.834-3.146 4.633zM26.653 26.688c-2.398 0.799-4.875 0.018-5.531-1.74-0.658-1.76 0.752-3.834 3.146-4.633 2.398-0.799 4.875-0.020 5.531 1.74 0.659 1.759-0.749 3.834-3.146 4.633zM29.96 5l-17.002 3v-3l17.002-3v3z"></path>
</svg>
