<?xml version="1.0" encoding="utf-8"?>
<!-- Generated by IcoMoon.io -->
<!DOCTYPE svg PUBLIC "-//W3C//DTD SVG 1.1//EN" "http://www.w3.org/Graphics/SVG/1.1/DTD/svg11.dtd">
<svg version="1.1" xmlns="http://www.w3.org/2000/svg" xmlns:xlink="http://www.w3.org/1999/xlink" width="32" height="32" viewBox="0 0 32 32">
<path d="M24 0h-16c-1.658 0-3 1.343-3 3v26c0 1.658 1.343 3 3 3h16c1.656 0 3-1.344 3-3v-26c0-1.658-1.344-3-3-3zM25 29c0 0.551-0.449 1-1 1h-16c-0.552 0-1-0.447-1-1v-2.004h18v2.004zM25 25.996h-18v-19.996h18v19.996zM25 5h-18v-2c0-0.552 0.448-1 1-1h16c0.551 0 1 0.448 1 1v2zM18 3.5c0 0.276-0.225 0.5-0.5 0.5h-3c-0.277 0-0.5-0.224-0.5-0.5v0c0-0.277 0.223-0.5 0.5-0.5h3c0.275 0 0.5 0.223 0.5 0.5v0zM17 28.496c0 0.275-0.225 0.5-0.5 0.5h-1c-0.276 0-0.5-0.225-0.5-0.5v0c0-0.277 0.224-0.5 0.5-0.5h1c0.275 0 0.5 0.223 0.5 0.5v0z"></path>
</svg>
