<?xml version="1.0" encoding="utf-8"?>
<!-- Generated by IcoMoon.io -->
<!DOCTYPE svg PUBLIC "-//W3C//DTD SVG 1.1//EN" "http://www.w3.org/Graphics/SVG/1.1/DTD/svg11.dtd">
<svg version="1.1" xmlns="http://www.w3.org/2000/svg" xmlns:xlink="http://www.w3.org/1999/xlink" width="32" height="32" viewBox="0 0 32 32">
<path d="M26.998 14.003c0-4.962-4.037-9-9-8.999v-0.004c-0.275-0.001-0.498-0.225-0.498-0.5s0.223-0.5 0.5-0.5c0.010 0 0.018 0.004 0.025 0.006 5.508 0.013 9.967 4.477 9.973 9.986 0 0.003 0.002 0.005 0.002 0.008 0 0.276-0.225 0.499-0.5 0.499s-0.498-0.222-0.5-0.496h-0.002zM9.121 0.878c-0.573-0.574-1.341-0.878-2.122-0.878-0.386 0-0.775 0.074-1.146 0.228-1.122 0.464-1.853 1.558-1.853 2.772l-0.001 13.757-3.12 3.122c-1.172 1.17-1.172 3.070 0 4.242l7 7c0.586 0.586 1.353 0.879 2.121 0.879s1.535-0.293 2.121-0.879l3.121-3.121h13.756c1.215 0 2.309-0.73 2.771-1.852 0.465-1.121 0.209-2.412-0.65-3.27l-21.998-22zM13.828 26.586l-3.121 3.121c-0.255 0.254-0.553 0.293-0.707 0.293s-0.452-0.039-0.707-0.293l-7-7c-0.255-0.256-0.293-0.553-0.293-0.707s0.038-0.453 0.293-0.707l3.12-3.121c0.009-0.010 0.012-0.021 0.021-0.031l8.425 8.426c-0.009 0.007-0.022 0.009-0.031 0.019zM15.242 26c-0.155 0-0.299 0.055-0.447 0.088l-8.885-8.885c0.034-0.148 0.089-0.292 0.089-0.446l0.001-12.046 21.287 21.289h-12.045zM29.922 25.383c-0.154 0.375-0.518 0.617-0.924 0.617h-0.297l-22.701-22.703v-0.297c0-0.406 0.242-0.769 0.617-0.924 0.123-0.051 0.251-0.076 0.382-0.076 0.268 0 0.519 0.104 0.707 0.292l21.999 22.001c0.287 0.287 0.373 0.715 0.217 1.090zM17.998 2c-0.551-0.001-0.998-0.449-0.998-1 0-0.553 0.447-1 1-1 0.010 0 0.018 0.004 0.025 0.005 7.717 0.014 13.967 6.269 13.973 13.987 0 0.003 0.002 0.005 0.002 0.008 0 0.553-0.447 1-1 1-0.551 0-0.998-0.446-1-0.996h-0.002c0-6.617-5.383-12-12-12v-0.004z"></path>
</svg>
