<?xml version="1.0" encoding="utf-8"?>
<!-- Generated by IcoMoon.io -->
<!DOCTYPE svg PUBLIC "-//W3C//DTD SVG 1.1//EN" "http://www.w3.org/Graphics/SVG/1.1/DTD/svg11.dtd">
<svg version="1.1" xmlns="http://www.w3.org/2000/svg" xmlns:xlink="http://www.w3.org/1999/xlink" width="32" height="32" viewBox="0 0 32 32">
<path d="M31.924 18.455l-4.002-15.006c-0.242-0.853-1.033-1.449-1.922-1.449h-20c-0.89 0-1.68 0.596-1.922 1.449l-4.002 15.006c-0.051 0.182-0.076 0.365-0.076 0.545v7c0 2.209 1.791 4 4 4h24c2.209 0 4-1.791 4-4v-7c0-0.18-0.025-0.363-0.076-0.545zM30 26c0 1.102-0.898 2-2 2h-24c-1.103 0-2-0.898-2-2v-7l4.001-15.001h19.997l4.002 15.001v7zM23.742 6h-15.484c-0.453 0-0.85 0.305-0.967 0.743l-3.445 12c-0.079 0.301-0.016 0.621 0.174 0.867s0.482 0.39 0.792 0.39h4.568l1.447 2.895c0.34 0.677 1.032 1.105 1.79 1.105h6.766c0.758 0 1.449-0.428 1.789-1.105l1.447-2.895h4.568c0.311 0 0.604-0.145 0.793-0.391s0.252-0.566 0.174-0.867l-3.445-12c-0.117-0.438-0.514-0.742-0.967-0.742zM24.281 18h-1.662c-0.762 0-1.447 0.422-1.789 1.105l-1.447 2.895h-6.766l-1.447-2.895c-0.342-0.683-1.027-1.105-1.789-1.105h-4.047l2.924-11h15.484l2.924 11h-2.385z"></path>
</svg>
