<?xml version="1.0" encoding="utf-8"?>
<!-- Generated by IcoMoon.io -->
<!DOCTYPE svg PUBLIC "-//W3C//DTD SVG 1.1//EN" "http://www.w3.org/Graphics/SVG/1.1/DTD/svg11.dtd">
<svg version="1.1" xmlns="http://www.w3.org/2000/svg" xmlns:xlink="http://www.w3.org/1999/xlink" width="32" height="32" viewBox="0 0 32 32">
<path d="M22.17 8.624c-2.707-0.557-5.455-0.839-8.165-0.839s-5.457 0.282-8.165 0.839c-0.35 0.072-0.636 0.326-0.749 0.667-1.442 4.381-1.442 8.823 0 13.204 0.112 0.34 0.398 0.594 0.749 0.666 2.708 0.556 5.455 0.839 8.165 0.839 2.709 0 5.458-0.283 8.165-0.84 0.352-0.072 0.637-0.326 0.75-0.666 1.441-4.381 1.441-8.823 0-13.204-0.113-0.34-0.399-0.594-0.75-0.666zM21.969 22.182c-5.309 1.090-10.619 1.090-15.927 0-1.381-4.193-1.381-8.385 0-12.579 5.309-1.091 10.619-1.091 15.927 0 1.381 4.193 1.381 8.385 0 12.579zM30.854 6.32c-0.193-0.814-0.875-1.422-1.705-1.522-4.36-0.53-8.782-0.798-13.144-0.798s-8.783 0.268-13.143 0.797c-0.83 0.101-1.511 0.708-1.704 1.523-1.529 6.423-1.529 12.936 0 19.36 0.193 0.814 0.874 1.422 1.704 1.521 2.101 0.256 4.216 0.443 6.331 0.576-0.114 0.073-0.188 0.147-0.188 0.223 0 0.553 3.134 1 7 1s7-0.447 7-1c0-0.076-0.074-0.15-0.188-0.223 2.115-0.133 4.23-0.32 6.33-0.576 0.83-0.1 1.512-0.707 1.705-1.521 1.531-6.424 1.531-12.937 0.002-19.36zM28.908 25.217c-8.602 1.043-17.204 1.043-25.805 0-1.463-6.145-1.463-12.29 0-18.434 8.602-1.044 17.204-1.044 25.805 0 1.463 6.144 1.463 12.289 0 18.434zM26.506 12c0.828 0 1.5-0.672 1.5-1.5s-0.672-1.5-1.5-1.5-1.5 0.672-1.5 1.5 0.672 1.5 1.5 1.5zM26.506 10c0.275 0 0.5 0.225 0.5 0.5s-0.225 0.5-0.5 0.5-0.5-0.225-0.5-0.5 0.224-0.5 0.5-0.5zM27.506 22c0.275 0 0.5 0.223 0.5 0.5 0 0.275-0.225 0.5-0.5 0.5h-3c-0.277 0-0.5-0.225-0.5-0.5 0-0.277 0.223-0.5 0.5-0.5h3zM28.506 19c0.275 0 0.5 0.223 0.5 0.5 0 0.275-0.225 0.5-0.5 0.5h-3c-0.277 0-0.5-0.225-0.5-0.5 0-0.277 0.223-0.5 0.5-0.5h3zM28.506 16c0.275 0 0.5 0.224 0.5 0.5s-0.225 0.5-0.5 0.5h-3c-0.277 0-0.5-0.224-0.5-0.5s0.223-0.5 0.5-0.5h3zM13.505 11.804c0.276-0.011 0.5 0.204 0.5 0.48s-0.225 0.508-0.5 0.518l-3.749 0.257c-0.273 0.028-0.527 0.274-0.564 0.546l-0.167 1.895c-0.011 0.275-0.245 0.5-0.518 0.5s-0.487-0.225-0.473-0.5l0.305-2.786c0.046-0.272 0.307-0.52 0.58-0.551l4.586-0.359z"></path>
</svg>
