<?xml version="1.0" encoding="utf-8"?>
<!-- Generated by IcoMoon.io -->
<!DOCTYPE svg PUBLIC "-//W3C//DTD SVG 1.1//EN" "http://www.w3.org/Graphics/SVG/1.1/DTD/svg11.dtd">
<svg version="1.1" xmlns="http://www.w3.org/2000/svg" xmlns:xlink="http://www.w3.org/1999/xlink" width="32" height="32" viewBox="0 0 32 32">
<path d="M30 6h-0.887c-0.525 0-1.029 0.207-1.404 0.576l-2.709 2.672v-1.248c0-1.657-1.344-3-3-3h-19c-1.654 0-3 1.345-3 3v16c0 1.656 1.343 3 3 3h19c1.656 0 3-1.344 3-3v-1.221l2.709 2.672c0.375 0.369 0.879 0.576 1.404 0.576h0.887c1.104 0 2-0.895 2-2v-16.027c0-1.105-0.896-2-2-2zM3 25c-0.552 0-1-0.449-1-1v-16c0-0.553 0.447-1 1-1h19c0.551 0 1 0.448 1 1v16c0 0.551-0.449 1-1 1h-19zM30 24.027h-1l-4-4v-0.027l-1-1v-6l5-5h1v16.027z"></path>
</svg>
