<?xml version="1.0" encoding="utf-8"?>
<!-- Generated by IcoMoon.io -->
<!DOCTYPE svg PUBLIC "-//W3C//DTD SVG 1.1//EN" "http://www.w3.org/Graphics/SVG/1.1/DTD/svg11.dtd">
<svg version="1.1" xmlns="http://www.w3.org/2000/svg" xmlns:xlink="http://www.w3.org/1999/xlink" width="32" height="32" viewBox="0 0 32 32">
<path d="M21.951 1.15c-8.202-3.284-17.515 0.702-20.8 8.905-3.286 8.204 0.702 17.518 8.905 20.802s17.516-0.702 20.801-8.905c3.286-8.204-0.703-17.516-8.906-20.802zM10.8 29.001c-7.166-2.87-10.662-11.034-7.793-18.201s11.035-10.663 18.202-7.792c7.166 2.869 10.662 11.034 7.793 18.2-2.871 7.167-11.035 10.662-18.202 7.793zM16.749 14.147c-1.025-0.411-2.19 0.088-2.601 1.113s0.088 2.189 1.112 2.6c1.025 0.411 2.191-0.088 2.601-1.112s-0.088-2.189-1.112-2.601zM15.632 16.933c-0.512-0.206-0.761-0.788-0.557-1.301 0.206-0.512 0.789-0.761 1.301-0.557 0.511 0.205 0.76 0.788 0.556 1.301s-0.788 0.761-1.3 0.557zM18.234 10.435c-3.076-1.232-6.568 0.264-7.8 3.339s0.264 6.568 3.339 7.8c3.076 1.232 6.568-0.263 7.8-3.339s-0.262-6.569-3.339-7.8zM14.518 19.717c-2.048-0.819-3.046-3.153-2.227-5.2 0.82-2.047 3.152-3.046 5.199-2.227 2.049 0.82 3.047 3.154 2.229 5.201-0.821 2.047-3.154 3.047-5.201 2.226zM23.432 18.978h-0.002c-0.817 2.039-2.383 3.556-4.256 4.366-0.007 0.003-0.011 0.011-0.021 0.015-0.254 0.108-0.547-0.009-0.656-0.264-0.109-0.253 0.010-0.547 0.262-0.655 1.646-0.705 3.025-2.038 3.744-3.834v0.001c0.103-0.257 0.394-0.382 0.65-0.278 0.256 0.102 0.381 0.393 0.279 0.649zM26.865 19.814c0.256 0.103 0.381 0.394 0.279 0.65-1.225 3.058-3.576 5.335-6.385 6.548-0.012 0.005-0.021 0.016-0.033 0.022-0.254 0.108-0.547-0.008-0.656-0.263-0.109-0.254 0.010-0.548 0.262-0.656 2.588-1.108 4.754-3.203 5.883-6.023 0.103-0.256 0.394-0.381 0.65-0.278zM25.008 19.071c0.256 0.103 0.381 0.394 0.279 0.65-1.021 2.549-2.98 4.445-5.32 5.456-0.011 0.006-0.017 0.015-0.027 0.020-0.254 0.108-0.547-0.009-0.656-0.263s0.010-0.548 0.264-0.657h-0.002c2.119-0.907 3.89-2.62 4.812-4.928 0.103-0.257 0.394-0.381 0.65-0.278zM13.513 8.912c0.109 0.255-0.009 0.548-0.263 0.658-1.646 0.704-3.025 2.038-3.743 3.832h-0.001c-0.102 0.256-0.393 0.381-0.65 0.278s-0.381-0.393-0.278-0.65h0.001c0.816-2.038 2.383-3.556 4.256-4.366 0.007-0.003 0.012-0.011 0.021-0.014 0.254-0.109 0.548 0.007 0.657 0.262zM11.938 5.235c0.109 0.254-0.009 0.547-0.262 0.657-2.588 1.108-4.753 3.203-5.883 6.022-0.103 0.257-0.394 0.381-0.65 0.278s-0.382-0.393-0.278-0.651c1.225-3.058 3.575-5.334 6.385-6.548 0.010-0.005 0.019-0.016 0.031-0.021 0.254-0.108 0.548 0.009 0.657 0.263zM12.462 7.729v0.003c-2.117 0.906-3.889 2.62-4.812 4.928-0.103 0.257-0.394 0.38-0.65 0.278-0.255-0.104-0.381-0.394-0.277-0.651 1.020-2.548 2.979-4.446 5.32-5.458 0.010-0.004 0.016-0.014 0.026-0.018 0.254-0.109 0.548 0.009 0.657 0.262 0.109 0.255-0.010 0.548-0.263 0.656z"></path>
</svg>
